# xmcd
#
# Track frame offsets: 
#        150
#        12861
#        29849
#        45968
#        58626
#        78038
#        102467
#        120867
#        135223
#        146964
#        160598
#        191282
#        251390
#        264900
#        283473
#        304029
#        319049
#
# Disc length: 4445 seconds
#
# Revision: 0
# Processed by: cddbd v1.5.2PL0 Copyright (c) Steve Scherf et al.
# Submitted via: ExactAudioCopy v0.99pb4
#
DISCID=d9115b11
DTITLE=Relaxin' 'Round Midnight: The Very Best of Classic FM Jazz  - c
DTITLE=d 2
DYEAR=1900
DGENRE=
TTITLE0=Erroll Garner - Misty
TTITLE1=Oscar Peterson - Georgia On My Mind
TTITLE2=Ella Fitzgerald Buddy Bregman Orchestra - Ev'ry Time We Say Go
TTITLE2=odbye
TTITLE3=Charlie Parker - Summertime
TTITLE4=Blossom Dearie - Surrey With The Fringe On Top
TTITLE5=Miles Davis Quintet - It Never Entered My Mind
TTITLE6=Tony Bennett Bill Evans - Waltz For Debby
TTITLE7=Kenny Dorham - Alone Together
TTITLE8=Nina Simone - I Put A Spell On You
TTITLE9=Chet Baker - Do It The Hard Way
TTITLE10=Billie Holiday - Day In Day Out
TTITLE11=Art Blakey and The Jazz Messengers - Moanin
TTITLE12=Sarah Vaughan Richard Heyman Orchestra - My Funny Valentine
TTITLE13=Johnny Hartman - I Just Dropped By To Say Hello
TTITLE14=Lizz Wright - Vocalise - End Of The Line
TTITLE15=Sonny Rollins - In A Sentimental Mood
TTITLE16=Kenny Burrell John Coltrane - Why Was I Born
EXTD=
EXTT0=
EXTT1=
EXTT2=
EXTT3=
EXTT4=
EXTT5=
EXTT6=
EXTT7=
EXTT8=
EXTT9=
EXTT10=
EXTT11=
EXTT12=
EXTT13=
EXTT14=
EXTT15=
EXTT16=
PLAYORDER=
